<?xml version="1.0" encoding="UTF-8"?>
<svg xmlns="http://www.w3.org/2000/svg" viewBox="0 0 1905.39 2931.24">
  <defs>
    <style>
      .cls-1, .cls-2 {
        stroke: #000;
        stroke-miterlimit: 10;
      }

      .cls-3, .cls-2 {
        fill: #fff;
      }

      .cls-4 {
        fill: #923313;
      }

      .cls-5 {
        fill: #bfa125;
      }

      .cls-6 {
        fill: #c6a41c;
      }
    </style>
  </defs>
  <g id="cabeza">
    <g id="alas">
      <path d="m1160.62,2189.79s94.22,118.31,213.23-22.19c0,0,84.3-72.73-34.71-373.58,0,0-92.57-259.52-102.49-259.52,0,0,381.85-43.98,386.81-55.05,0,0,24.8,137.7,137.2,198.86l13.22-77.35s-84.3-91.26-54.55-200.35c0,0,59.51-115.71,185.14-203.32,0,0,8.27-29.75-24.8-38.02,0,0-54.55,42.98-66.12,42.98,0,0-36.37,23.08-29.75-31.44l51.24-52.87s-16.53-26.43-31.41-12.39l-51.24,47.1s-13.22,21.53-9.92-14.03l24.8-41.96s9.92-34.57-24.8-19.87c0,0-90.92,129.87-100.83,168.16,0,0-39.67,106.06-23.14,172.18l-428.19-49.17s11.6-75.26-16.49-83.3-841.16,140.4-841.16,140.4c0,0-221.71,335.89-225.02,352.42,0,0-13.8,5.25,15.15,30.59s26.54,15.69,26.54,15.69c0,0-33.78,57.92-33.78,91.7,0,0-45.85-30.16-42.23-12.07,0,0-19.71,2.41-.2,39.82,0,0,11.06,12.07,11.06,25.34l-7.24,17.67s-59.12-46.63-69.98-28.53c0,0-15.69,15.69,0,38.61,0,0,57.92,3.62,118.24,76.01,0,0,61.85,79.07,122.02,86.59,0,0,39.66,9.93,86.71-17.82l210,243.14s58.47,109.5,58.47,115.77c0,0-296.15-36.68-294.36,0,0,0-56.37,158.36-58.16,180.73,0,0-22.37-1.79-51.89,49.21,0,0-118.1-18.79-141.36,68,0,0-13.42,54.58,65.31,68.89,0,0,37.58,8.05,48.31,0,0,0,53.68-9.84,87.68,11.63,0,0,24.16,19.68,82.31-4.47,0,0,10.74-3.58,15.21-11.63l470.61,68.89s30.42-45.63-13.42-203.1c0,0-22.37-85-25.05-85,0,0-2.68-12.53,51-.89l46.52,5.37s104.56-257.7,179.99-325.34,87.2-112.27,95.49-132.49Z"/>
      <path class="cls-3" d="m749.67,2535.08s-2.43-81.99-22.14-98.29,0,0,0,0c0,0,104.8,14.99,135.91-2.07s0,0,0,0c0,0-46.69,59.33-48.11,100.35h-65.66Z"/>
      <path class="cls-3" d="m487.15,2590.25s161.26,21.22,165.51,24.05c0,0,28.29,93.36,29.71,103.26,0,0,25.46,29.71-48.1,0,0,0-67.9-41.02-178.24,2.83l31.12-130.14Z"/>
    </g>
    <path d="m696.8,1300.95s-94.24,123.69-329.85-23.56c0,0-6.7-4.55-16.06-13.41-37.04-35.07-115.61-137.7,16.06-292.88,0,0,106.02-53.01,253.28-341.63,0,0,41.23-29.45,76.57,0,0,0,22.84-51.51-12.57-107.76,0,0-91.66-295.82-314.56-397.89,0,0-56.42,32.32-99.99-39.58-41.66-68.75-12.5-72.91-12.5-72.91,0,0,31.25-39.58,83.33,29.16,0,0,31.25,25,31.25,37.5,0,0,152.07,68.75,212.49,177.07,0,0,104.22,145.82,119.82,229.15,0,0,19.41-35.8,45.63-39.77,0,0,36.63,12.69,17.88,85.6,0,0,72.91,33.33,87.49,54.16,0,0,135.41-279.15,341.65-424.97,0,0,41.66-75,66.66-87.49,0,0,104.16-52.08,50,56.25,0,0-18.75,35.41-62.5,37.5,0,0-31.36,11.82-38.97,9.29,0,0-201.68,180.12-299.35,431.27,0,0,63.42-15.22,111.62,143.33,0,0,83.72,145.87,84.98,169.97,0,0,128.11,106.55,120.5,195.34,0,0,27.91,58.35-55.81,169.97,0,0-68.5,77.37-200.41,95.13,0,0-105.28-8.88-177.58-67.23,0,0-87.74,13.58-99.04-11.6Z"/>
    <path d="m321.27,1244.94s15.97,42.22,22.8,30.63c0,0-31.85,7.51-11.4,149.49l28.42,181.8s-11.15,79.89,27.08,115.6c0,0-52.56,99.42-55.74,128.08,0,0-46.19,138.57,0,248.46,0,0-14.33,101.93,141.75,246.87,0,0,127.76,90.78,313.93,95.56,0,0,210.07-3.19,256.26-93.97,0,0,114.67-136.97,116.27-157.68v-100.34s-11.15-97.15,14.33-172.01c0,0,6.37-157.42,0-194.98l-23.03-243.02,38.39-111.49c.08-19.51-2.12-50.42-16.49-83.3-114.19-261.36-823.75-250.93-868.95-108.15-7.43,23.46,3.66,48.66,16.39,68.44Z"/>
  </g>
  <g id="lineas">
    <path class="cls-6" d="m412.94,1499.69l738.99-20.25,23.03,243.02s-298.93-157.73-746.41-35.45c0,0-49.43-2.6-15.61-187.32Z"/>
    <path class="cls-6" d="m1174.96,1917.43s-512.26-212.22-806.24-30.1c0,0-33.69,111.87-24.65,163.9,0,0,429.94,214.32,816.56,38.22,0,0,24.48-71.66,14.33-172.01Z"/>
    <path class="cls-6" d="m1026.42,2307.62s-327.3,61.01-579.66-61.27c0,0,30.83,91.06,240.46,143.09,0,0,203.92,48.26,339.2-81.82Z"/>
  </g>
  <g id="cuerpo">
    <path d="m1137.55,1483.11c-16.78,4.19-43.71,10.64-55.45,11.88-3.63.38-6.98,2.14-9.3,4.96l-49.92,60.54c-.24.29-.46.58-.67.88-1.67,2.42-11.41,15.2-15.76-8.52-.14-.79-.21-1.59-.21-2.39v-21.25c0-.37.02-.74.05-1.12.2-2.62.4-14.7-13.93-6.34-1.44.84-2.72,1.93-3.77,3.23l-20.43,25.1c-.78.95-1.42,2-1.91,3.12-2.03,4.58-8.85,16.86-18.02.43-.62-1.1-1.06-2.29-1.33-3.53-1.14-5.1-5.98-19.78-21.33,1.04-.25.34-.52.68-.8.99l-18.71,20.98c-.33.37-.64.76-.93,1.16-1.97,2.73-11.41,14.52-20.89,3.76-1.83-2.07-2.92-4.7-3.21-7.45-.8-7.78-5.68-25.8-34.63-4.63-.74.54-1.42,1.17-2.04,1.85l-19.79,21.87c-.75.83-1.39,1.73-1.92,2.72-2.13,3.97-9.62,14.79-21.82-.4-.43-.53-.8-1.11-1.14-1.7-2-3.49-10.65-16.78-22.69-9.05-1.28.82-2.37,1.92-3.3,3.13-2.39,3.11-8.86,9.46-14.85-3.09-.49-1.02-.81-2.12-1.02-3.24-.89-4.74-4.54-18.56-15.33-5.45-1.53,1.86-2.53,4.1-2.9,6.47-1.04,6.66-5.3,20.54-22.39,1.17-1-1.14-1.8-2.44-2.38-3.84-2.7-6.49-12.34-26.53-26.35-20.96-2.78,1.11-5.04,3.22-6.53,5.81-2.57,4.46-9.31,12.08-21.59.11-.9-.88-1.67-1.88-2.29-2.97-3.38-5.89-16.79-26.92-25.84-6.74,0,0-20.61,50.31-55.01.84-.36-.51-.67-1.06-.96-1.62-2.5-4.95-17.13-30.79-36.51-1.31-.71,1.09-1.29,2.27-1.66,3.51-1.37,4.54-7.74,17.85-34.13,7.61-4.22-1.64-7.35-5.28-8.38-9.68-2.07-8.85-7.41-22.97-19.95-17.37-1.23.55-2.53.94-3.87,1.13-5.53.77-19.15,1.78-25.41-5.77-1.95-2.35-2.88-5.39-2.88-8.44v-4.39c0-6.84-5.01-12.66-11.78-13.67l-11.19-1.67c-4.71-.7-8.73-3.78-10.63-8.15l-49.92-114.63c-4.14-9.5,3.27-20.01,13.61-19.31l746.23,50.45c5.62.38,10.45,4.13,12.2,9.49l15.31,46.72c2.5,7.63-1.99,15.77-9.78,17.71Z"/>
  </g>
  <g id="alas-2" data-name="alas">
    <path class="cls-3" d="m1205.65,1573.68s-8.8,524.24-21.53,550.89c0,0-5.25,75.73,80.33,77.13s138.31-113.65,106.04-210.73c0,0-34.36-222.28-164.84-417.29Z"/>
    <path class="cls-3" d="m361.09,1606.86s-132.75,120.91-153.05,161.51c0,0,98.53,50.66,124.38,82.17,0,0,24.73-104.97,55.74-128.08,0,0-40.5-3.04-27.08-115.6Z"/>
    <polygon class="cls-3" points="169.47 1835.36 298.1 1910.48 233.78 1957.17 151.19 1871.9 169.47 1835.36"/>
    <path class="cls-3" d="m302.48,1986.21s7.47,92.66,29.6,121.14c0,0-19.16,42.35-107.43,10.2,0,0-48.36-9.66,0-59.64,0,0,40.32-10.17,77.83-71.7Z"/>
  </g>
  <g id="ojos">
    <g>
      <path class="cls-3" d="m788.1,709.25c-2.34-7.93-7.37-20.9-18.59-33.15-20.33-22.2-46.5-26.23-54.38-27.14-17.43,5.85-32.08,13.29-44.31,21.11-99.44,63.55-110.33,197.07-112.1,227.44,0,0,111.6,51.93,114.69,62.13,0,0,97.68-100.16,202.47-7.42,8.33-1.45,16.73-2.84,25.2-4.18,48.79-7.71,96.1-12.96,141.73-16.23,0,0-49.15-254.97-189.18-285.14,0,0-31.83-6.98-65.53,62.57Z"/>
      <path d="m787.57,715.67c-1.02-.32-2.41-.95-3.6-2.08-1.2-1.11-1.99-2.58-2.36-3.75l-.45-1.57c-.28-.93-.56-1.86-.87-2.78-.61-1.84-1.29-3.67-2.04-5.46-1.49-3.6-3.25-7.09-5.27-10.43-4.04-6.67-9.09-12.82-15.05-17.99-5.95-5.17-12.68-9.57-20.01-12.84-7.29-3.32-15.11-5.69-23.11-6.88l1.27-.13c-12.03,4.5-23.55,10.14-34.47,16.7-10.94,6.52-21.19,14.14-30.62,22.62-18.89,16.99-34.26,37.62-46.17,60.04-11.9,22.45-20.66,46.55-26.79,71.29-6.12,24.75-9.9,50.13-11.27,75.57l-4.64-7.76c9.98,4.61,19.81,9.34,29.64,14.2,9.81,4.87,19.56,9.85,29.25,14.98,9.7,5.13,19.33,10.39,28.94,15.85,4.8,2.74,9.57,5.55,14.33,8.57,2.38,1.52,4.75,3.09,7.15,4.84,1.2.9,2.4,1.83,3.68,2.91l.98.89c.34.33.7.7,1.04,1.05l.58.68.28.35c.09.12.23.31.33.47.23.35.42.62.66,1.06.27.54.51,1.1.71,1.67l-10.99-2.68c1.01-1.01,1.88-1.79,2.81-2.65.92-.81,1.84-1.65,2.77-2.43,1.86-1.6,3.74-3.13,5.65-4.63,3.81-3.02,7.76-5.83,11.77-8.55,8.06-5.38,16.49-10.19,25.28-14.3,8.79-4.1,17.94-7.51,27.35-10.01,2.35-.62,4.7-1.27,7.11-1.71l3.58-.73,1.79-.36,1.81-.26c2.42-.34,4.82-.76,7.25-1.02l7.3-.62c9.77-.53,19.58.13,29.23,1.64l7.21,1.35c2.39.52,4.74,1.19,7.11,1.78,1.18.32,2.38.59,3.54.94l3.48,1.15,3.48,1.15c1.15.4,2.34.72,3.45,1.23,4.49,1.89,9.08,3.62,13.36,5.97,2.16,1.12,4.38,2.16,6.46,3.41l6.21,3.83,3.08,1.95,2.93,2.16,5.82,4.35c.99.7,1.88,1.51,2.8,2.31l2.73,2.38c1.81,1.6,3.56,3.26,5.23,5.01l-4.3-1.22c3.54-.18,7.12-.07,10.69-.03,3.57.05,7.12.01,10.63-.27.87-.1,1.58-1.24,2.46-1.31.22,0,.44-.04.68.1.12.05.26.23.39.35l.43.59.43.61c.14.18.28.36.41.48.13.12.25.2.37.22.06,0,.11.02.16-.01.05-.05.08-.22.09-.47l.02-.95v-.5c0-.17,0-.34.02-.43.03-.52.15-.45.24-.6.19-.21.39-.33.61-.38.43-.08.91.12,1.35.08.87-.14,1.79.1,2.64-.14.43-.1.83-.35,1.24-.57.41-.24.83-.36,1.26-.48.85-.26,1.7-.5,2.55-.73,1.7-.49,3.43-.85,5.15-1.17,13.82-2.62,27.67-5.13,41.55-7.51,6.94-1.2,13.9-2.32,20.86-3.43,6.97-1.05,13.94-2.11,20.93-2.98l10.49-1.31,10.51-1.14c7.01-.77,14.03-1.35,21.05-1.91l-7.84,10.22-1.45-6.71-1.57-6.8c-1.08-4.53-2.22-9.06-3.4-13.58-2.37-9.04-4.92-18.03-7.63-26.98-5.44-17.89-11.57-35.56-18.4-52.92-13.62-34.69-30.26-68.29-51.61-98.31-10.71-14.95-22.76-28.86-36.36-40.82-6.8-5.98-14-11.43-21.61-16.19-7.6-4.76-15.63-8.74-23.95-11.88-2.09-.74-4.16-1.59-6.3-2.2-2.12-.66-4.24-1.35-6.41-1.85l-3.24-.83-.4-.1c-.08-.02.13.03.14.02-.12,0-.24-.02-.36-.04l-1.04-.04c-.81.07-1.6.04-2.49.23l-1.31.2c-.44.1-.89.24-1.34.36l-1.35.35c-.45.15-.9.34-1.36.51-.9.37-1.83.6-2.71,1.1l-2.7,1.33c-.89.48-1.75,1.08-2.63,1.61-1.79.99-3.43,2.39-5.13,3.64l-1.27.95-1.2,1.09-2.41,2.18-1.21,1.09c-.41.36-.76.79-1.14,1.18l-2.26,2.41-2.27,2.41-2.11,2.61-2.11,2.61c-.7.88-1.43,1.72-2.06,2.67l-3.9,5.57c-1.36,1.81-2.5,3.8-3.71,5.74l-3.6,5.84-.23.37-.3.54-.65,1.14c-.44.76-.91,1.53-1.41,2.29-1,1.52-2.12,3.03-3.31,4.42-2.4,2.81-4.95,5.05-7.02,7.01Zm1.06-12.83c.1-2.24-.28-4.21-.5-5.6-.11-.71-.14-1.3-.05-1.88.04-.29.12-.57.22-.86.05-.15.11-.29.17-.44.04-.08.05-.13.11-.24l.23-.4,3.62-6.37c1.22-2.12,2.37-4.27,3.77-6.31l4.07-6.18c.65-1.05,1.44-2.02,2.19-3.01l2.27-2.97,2.27-2.97,2.5-2.84,2.52-2.83c.43-.46.82-.96,1.29-1.4l1.39-1.33,2.79-2.65,1.4-1.32,1.53-1.23c2.05-1.62,4.02-3.31,6.33-4.7,1.13-.72,2.21-1.48,3.38-2.15l3.63-1.89c1.17-.67,2.54-1.11,3.82-1.65.65-.25,1.29-.52,1.96-.76l2.07-.6c.69-.19,1.38-.4,2.08-.58l2.19-.41c1.43-.31,3.01-.39,4.56-.5.84,0,1.62-.01,2.51.03l1.41.13c.3.04.81.13,1.01.17l.46.11,3.66.85c2.45.52,4.85,1.24,7.26,1.93,2.43.64,4.77,1.53,7.15,2.32,9.44,3.37,18.5,7.73,27.02,12.88,8.52,5.15,16.53,11.04,24.04,17.44,15.02,12.82,27.95,27.68,39.42,43.36,5.73,7.85,11.09,15.94,16.14,24.19,5.03,8.26,9.73,16.7,14.18,25.25,8.89,17.11,16.72,34.68,23.76,52.53,7.03,17.85,13.16,36.02,18.66,54.36,2.73,9.17,5.3,18.4,7.69,27.68,1.19,4.64,2.33,9.29,3.42,13.97l1.59,7.04c.52,2.38,1.01,4.67,1.49,7.18l1.82,9.59-9.66.63-20.88,1.36-10.44.69-10.45.65-20.91,1.33c-6.97.43-13.95.89-20.92,1.42-13.95,1.02-27.89,2.25-41.81,3.74-1.74.19-3.48.35-5.25.38l-2.65.05c-.44,0-.88.03-1.34-.08-.46-.09-.92-.2-1.35-.17-.88.03-1.69.53-2.55.66-.43.1-.82.42-1.25.48-.22.02-.45-.04-.69-.17-.13-.12-.22-.02-.41-.5-.04-.08-.09-.25-.15-.41l-.16-.47-.31-.9c-.09-.23-.17-.39-.23-.42-.06-.01-.11.02-.16.04-.1.05-.2.16-.28.32-.09.15-.16.38-.24.59l-.22.72-.22.69c-.09.15-.16.36-.26.45-.19.21-.4.25-.61.32-.85.21-1.87-.63-2.73-.45-3.41.87-6.77,1.97-10.12,3.17-3.35,1.19-6.68,2.44-10.06,3.41l-1.67.48-2.64-1.7c-1.94-1.25-3.8-2.58-5.6-3.98l-2.68-2.11c-.89-.71-1.78-1.42-2.73-2.05l-5.57-3.91-2.77-1.97-2.88-1.79-5.73-3.63c-.93-.64-1.96-1.11-2.94-1.66l-2.96-1.63c-3.89-2.31-8.04-4.04-12.11-5.97-1.01-.51-2.08-.84-3.13-1.26l-3.16-1.19-3.16-1.19c-1.06-.38-2.15-.63-3.23-.95-2.17-.59-4.31-1.27-6.5-1.8l-6.62-1.29c-8.87-1.45-17.89-1.8-26.86-1.25-8.97.61-17.86,2.31-26.52,4.81-8.66,2.51-17.1,5.85-25.21,9.88-8.11,4.03-15.91,8.73-23.34,13.94-3.69,2.64-7.33,5.35-10.81,8.25-1.74,1.44-3.46,2.91-5.13,4.41-.85.74-1.65,1.51-2.47,2.27-.78.74-1.63,1.57-2.27,2.22l-10.99-2.68c.06.26.16.51.3.74.08.14.06.14.11.2,0,.02.06.06.04.05l-.05-.04s-.05-.06-.08-.1l-.4-.4-.53-.48c-.8-.69-1.78-1.4-2.78-2.1-2.05-1.41-4.27-2.79-6.53-4.14-4.53-2.7-9.24-5.29-13.99-7.83-9.51-5.08-19.25-9.86-29.01-14.61-9.77-4.73-19.59-9.4-29.42-14.05l-29.46-13.97-4.97-2.36.33-5.41c.82-13.25,2.39-26.45,4.51-39.53,2.2-13.08,4.98-26.06,8.49-38.86,3.56-12.79,7.77-25.4,12.76-37.73,4.97-12.33,10.76-24.35,17.43-35.88,13.3-23.06,30.24-44.21,50.69-61.35,5.07-4.32,10.44-8.29,15.9-12.09l8.36-5.45c2.84-1.73,5.73-3.38,8.65-4.96,11.7-6.31,24.09-11.23,36.72-15.02l.63-.19.64.06c8.62.75,17.15,2.63,25.33,5.69,8.2,3,15.97,7.29,23.04,12.62,7.08,5.32,13.28,11.85,18.43,19.15,2.57,3.65,4.88,7.5,6.87,11.51,1.01,2,1.93,4.04,2.79,6.12.43,1.03.83,2.08,1.23,3.13l.52,1.42c-.22-.68-.85-1.64-1.9-2.25-1.04-.63-2.28-.76-3.15-.58Z"/>
    </g>
    <g id="detalle_ojos" data-name="detalle ojos">
      <path class="cls-1" d="m651.87,944.3s1.45-60.7,20.92-56.99c0,0,32.46,4.64,0,66.77l-20.92-9.78Z"/>
      <g>
        <path d="m885.32,952.13s-14.17-49.02,8.45-55.91c4.57.86,7.81,2.57,10.09,4.25,11.61,8.53,14.67,28.15,8.32,49.31-3.43.74-7.24,1.39-11.38,1.83-5.7.61-10.91.7-15.47.52Z"/>
        <path d="m885.01,952.52c-.07-.09-.15-.2-.19-.32l-.05-.17-.06-.23-.12-.47-.24-.94-.45-1.88c-.29-1.25-.56-2.51-.81-3.77-.51-2.52-.95-5.05-1.31-7.59-.73-5.08-1.16-10.22-1.11-15.36.12-5.12.59-10.33,2.47-15.17.93-2.4,2.23-4.69,4.03-6.57,1.78-1.88,4.08-3.26,6.55-4.02h.04s.04,0,.04,0c2.63.51,5.21,1.37,7.57,2.66,1.17.66,2.32,1.36,3.32,2.27.51.44,1.05.84,1.52,1.32l1.38,1.46c.48.47.83,1.05,1.25,1.57.41.53.82,1.06,1.14,1.65l1.04,1.72.87,1.81.43.91.35.94.7,1.88.54,1.93.27.97.2.98c1.11,5.24,1.3,10.63.86,15.95-.44,5.33-1.53,10.59-3.07,15.7h0s0,0,0,0c-4.41.92-8.86,1.67-13.35,2.08-2.24.24-4.49.43-6.75.53l-3.39.15-1.7.04-.85.02c-.37,0-.77-.03-1.13-.09Zm.62-.79c.2-.04.36-.06.56-.03l.83.06,1.68.09c1.12.05,2.25.1,3.37.09,2.25,0,4.5-.07,6.74-.22,4.48-.37,8.96-.97,13.36-1.95h0c1.51-5.11,2.58-10.37,2.99-15.69.41-5.31.19-10.7-.94-15.91l-.21-.98-.27-.96-.55-1.92-.7-1.87-.35-.93-.43-.9-.87-1.79-1.04-1.7c-.32-.58-.73-1.11-1.14-1.63-.42-.51-.77-1.09-1.24-1.55l-1.38-1.44c-.47-.47-1.01-.86-1.51-1.29-.99-.89-2.13-1.58-3.29-2.22-2.33-1.27-4.88-2.1-7.49-2.59h.08c-2.42.75-4.64,2.11-6.37,3.95-1.74,1.84-3,4.09-3.91,6.45-1.81,4.76-2.29,9.93-2.33,15.01.02,5.1.53,10.2,1.33,15.24.4,2.52.87,5.03,1.42,7.52.27,1.25.56,2.49.87,3.73l.47,1.85.25.92.13.46.07.23s.04.13.02.06c-.02-.04-.07-.08-.12-.09Z"/>
      </g>
    </g>
    <path class="cls-1" d="m700.85,932c33.96-19.48,90.72-34.72,161.73,11.47,7.98,5.19,14.29,12.45,18.16,20.97l11.65,25.61c4.44,9.76,5.5,20.65,2.92,31.01-6.58,26.45-27.88,73.44-96.42,82.66-.75.1-1.5.21-2.25.35-8.92,1.6-81.63,12.24-111.76-59.95-3.05-7.3-4.2-15.23-3.36-23.06.94-8.85,1.56-21.45-1.35-28.25h0c-9.65-22.43-.91-48.41,20.7-60.8Z"/>
  </g>
  <g id="bpca">
    <path class="cls-5" d="m786.47,1095.22s105.72,9.69,110.22-85.91c0,0,60.93-113.91,196.69-36.11,0,0,218.12,103.72,0,334.04,0,0-158.12,109.82-292.6-30.51,0,0-39.91,25.93-99.4,1.53,0,0-151.01,98.19-265.4,24.41,0,0-137.28-86.94-76.27-254.73,0,0,22.8-133.84,173.89-117.45,0,0,132.28,21.35,169.31,56.44,0,0-37.24,115.56,83.58,108.3Z"/>
    <g id="sonrisa">
      <path class="cls-4" d="m935.73,1138.61s4.43-9.04-20.3-19.85c0,0-4.02-23.42,15.8-18.91,0,0,49.53,9.91,39.63,73.85,0,0-6.72,27.92-27.22,3.6,0,0-30.65,55.84-176.43,67.55,0,0-88.14,6.3-192.61-85.56,0,0,7.2,25.22-7.2,31.52,0,0-9.01,4-16.21-8.36,0,0-16.21-35.77,0-55.59,0,0,28.82-40.78,46.83-27.59,0,0,9.01,7.78-1.8,14.99,0,0-18.91.9-11.71,17.11,0,0,60.34,60.34,153.11,79.25,0,0,103.57,29.8,198.14-72.01Z"/>
    </g>
  </g>
  <g id="cpsa_de_abajo" data-name="cpsa de abajo">
    <path class="cls-2" d="m365.96,1298.46s196.83,136.85,321.26,20.09l6.42-3.77s30.19,13.71,45.2,7.53c0,0,46.21,1.83,57-9.76,0,0,88.63,65.69,151.41,67.23,0,0,138.78-7.05,192.98-65.98,0,0,6.65-2.79,9.16,3.49,0,0,8.79,48.4-6.28,62.49,0,0-16.32,4.05-16.32,14.09,0,0,6.28,45.2,8.79,50.22s-2.51-5.02-2.51-5.02c0,0-48.96,16.32-56.5,27.62l-48.96,59.01s-12.55,6.28-10.04-32.64c0,0-20.09-12.55-31.39,6.28l-27.62,26.74s-12.55-12.93-15.07-22.97c0,0-17.58,6.28-40.18,32.64,0,0-17.11,3.77-22.37-10.04,0,0-2.74-23.85-37.9,2.51l-20.09,20.09s-10.47,7.53-22.18,0c0,0-1.07-16.32-12.67-15.07l-20.91,8.79s-2.47-15.07-9.13-20.09c0,0-7.92-7.53-24.24,21.34,0,0-18.83-10.04-23.85-21.34,0,0-6.56-16.32-22.74-2.51,0,0-6.14,11.3-28.73-3.77,0,0-8.79-20.09-22.6-12.55,0,0-1.26,33.9-45.2,16.32,0,0-17.47-27.62-31.96-22.6,0,0-22.03,15.07-34.58,21.34,0,0-23.85-1.26-30.13-17.58,0,0-26.37-10.04-37.66-5.02,0,0-11.3-7.53-8.79-31.39,0,0-5.02-21.34-16.32-6.28,0,0-12.55,16.32-28.88-16.32,0,0,1.26-42.69-8.79-45.2,0,0-11.3,4.6-12.55,28.67,0,0-18.83,14.02-23.85-37.46,0,0,12.55-36.41,8.79-47.71,0,0-13.81-8.79-15.07-20.09l15.07-21.34Z"/>
  </g>
</svg>